<svg id="visual" viewBox="0 0 900 600" width="900" height="600" xmlns="http://www.w3.org/2000/svg" xmlns:xlink="http://www.w3.org/1999/xlink" version="1.1"><path d="M0 424L21.5 433.3C43 442.7 86 461.3 128.8 460.3C171.7 459.3 214.3 438.7 257.2 439.5C300 440.3 343 462.7 385.8 467.5C428.7 472.3 471.3 459.7 514.2 450.2C557 440.7 600 434.3 642.8 437.2C685.7 440 728.3 452 771.2 459.7C814 467.3 857 470.7 878.5 472.3L900 474L900 0L878.5 0C857 0 814 0 771.2 0C728.3 0 685.7 0 642.8 0C600 0 557 0 514.2 0C471.3 0 428.7 0 385.8 0C343 0 300 0 257.2 0C214.3 0 171.7 0 128.8 0C86 0 43 0 21.5 0L0 0Z" fill="#171718"></path><path d="M0 372L21.5 373.3C43 374.7 86 377.3 128.8 380.7C171.7 384 214.3 388 257.2 390.5C300 393 343 394 385.8 396.8C428.7 399.7 471.3 404.3 514.2 402.7C557 401 600 393 642.8 389.3C685.7 385.7 728.3 386.3 771.2 388.5C814 390.7 857 394.3 878.5 396.2L900 398L900 0L878.5 0C857 0 814 0 771.2 0C728.3 0 685.7 0 642.8 0C600 0 557 0 514.2 0C471.3 0 428.7 0 385.8 0C343 0 300 0 257.2 0C214.3 0 171.7 0 128.8 0C86 0 43 0 21.5 0L0 0Z" fill="#19191e"></path><path d="M0 365L21.5 361.5C43 358 86 351 128.8 350.5C171.7 350 214.3 356 257.2 359.3C300 362.7 343 363.3 385.8 361C428.7 358.7 471.3 353.3 514.2 348.3C557 343.3 600 338.7 642.8 342.7C685.7 346.7 728.3 359.3 771.2 363.3C814 367.3 857 362.7 878.5 360.3L900 358L900 0L878.5 0C857 0 814 0 771.2 0C728.3 0 685.7 0 642.8 0C600 0 557 0 514.2 0C471.3 0 428.7 0 385.8 0C343 0 300 0 257.2 0C214.3 0 171.7 0 128.8 0C86 0 43 0 21.5 0L0 0Z" fill="#1a1b25"></path><path d="M0 302L21.5 294.2C43 286.3 86 270.7 128.8 261.7C171.7 252.7 214.3 250.3 257.2 254.5C300 258.7 343 269.3 385.8 279.8C428.7 290.3 471.3 300.7 514.2 299.8C557 299 600 287 642.8 277.2C685.7 267.3 728.3 259.7 771.2 265C814 270.3 857 288.7 878.5 297.8L900 307L900 0L878.5 0C857 0 814 0 771.2 0C728.3 0 685.7 0 642.8 0C600 0 557 0 514.2 0C471.3 0 428.7 0 385.8 0C343 0 300 0 257.2 0C214.3 0 171.7 0 128.8 0C86 0 43 0 21.5 0L0 0Z" fill="#1a1e2c"></path><path d="M0 215L21.5 211.5C43 208 86 201 128.8 203C171.7 205 214.3 216 257.2 221.5C300 227 343 227 385.8 224.2C428.7 221.3 471.3 215.7 514.2 220.5C557 225.3 600 240.7 642.8 239.7C685.7 238.7 728.3 221.3 771.2 216C814 210.7 857 217.3 878.5 220.7L900 224L900 0L878.5 0C857 0 814 0 771.2 0C728.3 0 685.7 0 642.8 0C600 0 557 0 514.2 0C471.3 0 428.7 0 385.8 0C343 0 300 0 257.2 0C214.3 0 171.7 0 128.8 0C86 0 43 0 21.5 0L0 0Z" fill="#192032"></path><path d="M0 193L21.5 190C43 187 86 181 128.8 179.7C171.7 178.3 214.3 181.7 257.2 184C300 186.3 343 187.7 385.8 188.3C428.7 189 471.3 189 514.2 182C557 175 600 161 642.8 162.3C685.7 163.7 728.3 180.3 771.2 188.5C814 196.7 857 196.3 878.5 196.2L900 196L900 0L878.5 0C857 0 814 0 771.2 0C728.3 0 685.7 0 642.8 0C600 0 557 0 514.2 0C471.3 0 428.7 0 385.8 0C343 0 300 0 257.2 0C214.3 0 171.7 0 128.8 0C86 0 43 0 21.5 0L0 0Z" fill="#17233a"></path><path d="M0 96L21.5 101.7C43 107.3 86 118.7 128.8 120.7C171.7 122.7 214.3 115.3 257.2 117.3C300 119.3 343 130.7 385.8 134C428.7 137.3 471.3 132.7 514.2 128.7C557 124.7 600 121.3 642.8 117.8C685.7 114.3 728.3 110.7 771.2 112C814 113.3 857 119.7 878.5 122.8L900 126L900 0L878.5 0C857 0 814 0 771.2 0C728.3 0 685.7 0 642.8 0C600 0 557 0 514.2 0C471.3 0 428.7 0 385.8 0C343 0 300 0 257.2 0C214.3 0 171.7 0 128.8 0C86 0 43 0 21.5 0L0 0Z" fill="#132641"></path><path d="M0 78L21.5 72.8C43 67.7 86 57.3 128.8 57.7C171.7 58 214.3 69 257.2 71.7C300 74.3 343 68.7 385.8 67.7C428.7 66.7 471.3 70.3 514.2 70C557 69.7 600 65.3 642.8 62.8C685.7 60.3 728.3 59.7 771.2 57.3C814 55 857 51 878.5 49L900 47L900 0L878.5 0C857 0 814 0 771.2 0C728.3 0 685.7 0 642.8 0C600 0 557 0 514.2 0C471.3 0 428.7 0 385.8 0C343 0 300 0 257.2 0C214.3 0 171.7 0 128.8 0C86 0 43 0 21.5 0L0 0Z" fill="#0c2948"></path></svg>