<svg id="visual" viewBox="0 0 900 450" width="900" height="450" xmlns="http://www.w3.org/2000/svg" xmlns:xlink="http://www.w3.org/1999/xlink" version="1.1"><path d="M0 329L21.5 326C43 323 86 317 128.8 320.3C171.7 323.7 214.3 336.3 257.2 338C300 339.7 343 330.3 385.8 330C428.7 329.7 471.3 338.3 514.2 335.2C557 332 600 317 642.8 315C685.7 313 728.3 324 771.2 333.7C814 343.3 857 351.7 878.5 355.8L900 360L900 0L878.5 0C857 0 814 0 771.2 0C728.3 0 685.7 0 642.8 0C600 0 557 0 514.2 0C471.3 0 428.7 0 385.8 0C343 0 300 0 257.2 0C214.3 0 171.7 0 128.8 0C86 0 43 0 21.5 0L0 0Z" fill="#171718"></path><path d="M0 308L21.5 308.3C43 308.7 86 309.3 128.8 302C171.7 294.7 214.3 279.3 257.2 279.3C300 279.3 343 294.7 385.8 298C428.7 301.3 471.3 292.7 514.2 293.8C557 295 600 306 642.8 303.5C685.7 301 728.3 285 771.2 280.3C814 275.7 857 282.3 878.5 285.7L900 289L900 0L878.5 0C857 0 814 0 771.2 0C728.3 0 685.7 0 642.8 0C600 0 557 0 514.2 0C471.3 0 428.7 0 385.8 0C343 0 300 0 257.2 0C214.3 0 171.7 0 128.8 0C86 0 43 0 21.5 0L0 0Z" fill="#19191e"></path><path d="M0 270L21.5 268C43 266 86 262 128.8 259C171.7 256 214.3 254 257.2 256.2C300 258.3 343 264.7 385.8 264.7C428.7 264.7 471.3 258.3 514.2 257C557 255.7 600 259.3 642.8 263.5C685.7 267.7 728.3 272.3 771.2 272.7C814 273 857 269 878.5 267L900 265L900 0L878.5 0C857 0 814 0 771.2 0C728.3 0 685.7 0 642.8 0C600 0 557 0 514.2 0C471.3 0 428.7 0 385.8 0C343 0 300 0 257.2 0C214.3 0 171.7 0 128.8 0C86 0 43 0 21.5 0L0 0Z" fill="#1a1b23"></path><path d="M0 215L21.5 219.7C43 224.3 86 233.7 128.8 233.7C171.7 233.7 214.3 224.3 257.2 219.5C300 214.7 343 214.3 385.8 216C428.7 217.7 471.3 221.3 514.2 224.2C557 227 600 229 642.8 226.7C685.7 224.3 728.3 217.7 771.2 212.8C814 208 857 205 878.5 203.5L900 202L900 0L878.5 0C857 0 814 0 771.2 0C728.3 0 685.7 0 642.8 0C600 0 557 0 514.2 0C471.3 0 428.7 0 385.8 0C343 0 300 0 257.2 0C214.3 0 171.7 0 128.8 0C86 0 43 0 21.5 0L0 0Z" fill="#1a1d29"></path><path d="M0 203L21.5 196.8C43 190.7 86 178.3 128.8 174.7C171.7 171 214.3 176 257.2 179.8C300 183.7 343 186.3 385.8 184.2C428.7 182 471.3 175 514.2 175.8C557 176.7 600 185.3 642.8 189.8C685.7 194.3 728.3 194.7 771.2 196.7C814 198.7 857 202.3 878.5 204.2L900 206L900 0L878.5 0C857 0 814 0 771.2 0C728.3 0 685.7 0 642.8 0C600 0 557 0 514.2 0C471.3 0 428.7 0 385.8 0C343 0 300 0 257.2 0C214.3 0 171.7 0 128.8 0C86 0 43 0 21.5 0L0 0Z" fill="#1a1f2f"></path><path d="M0 153L21.5 155.5C43 158 86 163 128.8 160.5C171.7 158 214.3 148 257.2 144.2C300 140.3 343 142.7 385.8 145.7C428.7 148.7 471.3 152.3 514.2 154.7C557 157 600 158 642.8 156C685.7 154 728.3 149 771.2 150.3C814 151.7 857 159.3 878.5 163.2L900 167L900 0L878.5 0C857 0 814 0 771.2 0C728.3 0 685.7 0 642.8 0C600 0 557 0 514.2 0C471.3 0 428.7 0 385.8 0C343 0 300 0 257.2 0C214.3 0 171.7 0 128.8 0C86 0 43 0 21.5 0L0 0Z" fill="#192135"></path><path d="M0 123L21.5 124.7C43 126.3 86 129.7 128.8 129.2C171.7 128.7 214.3 124.3 257.2 121.5C300 118.7 343 117.3 385.8 119C428.7 120.7 471.3 125.3 514.2 122.3C557 119.3 600 108.7 642.8 108C685.7 107.3 728.3 116.7 771.2 117.5C814 118.3 857 110.7 878.5 106.8L900 103L900 0L878.5 0C857 0 814 0 771.2 0C728.3 0 685.7 0 642.8 0C600 0 557 0 514.2 0C471.3 0 428.7 0 385.8 0C343 0 300 0 257.2 0C214.3 0 171.7 0 128.8 0C86 0 43 0 21.5 0L0 0Z" fill="#17243b"></path><path d="M0 94L21.5 94.2C43 94.3 86 94.7 128.8 90C171.7 85.3 214.3 75.7 257.2 70.7C300 65.7 343 65.3 385.8 68.7C428.7 72 471.3 79 514.2 80.3C557 81.7 600 77.3 642.8 75.7C685.7 74 728.3 75 771.2 73.7C814 72.3 857 68.7 878.5 66.8L900 65L900 0L878.5 0C857 0 814 0 771.2 0C728.3 0 685.7 0 642.8 0C600 0 557 0 514.2 0C471.3 0 428.7 0 385.8 0C343 0 300 0 257.2 0C214.3 0 171.7 0 128.8 0C86 0 43 0 21.5 0L0 0Z" fill="#132642"></path><path d="M0 57L21.5 53.2C43 49.3 86 41.7 128.8 39C171.7 36.3 214.3 38.7 257.2 41.2C300 43.7 343 46.3 385.8 45.8C428.7 45.3 471.3 41.7 514.2 42.7C557 43.7 600 49.3 642.8 48.7C685.7 48 728.3 41 771.2 39.5C814 38 857 42 878.5 44L900 46L900 0L878.5 0C857 0 814 0 771.2 0C728.3 0 685.7 0 642.8 0C600 0 557 0 514.2 0C471.3 0 428.7 0 385.8 0C343 0 300 0 257.2 0C214.3 0 171.7 0 128.8 0C86 0 43 0 21.5 0L0 0Z" fill="#0c2948"></path></svg>