<svg id="visual" viewBox="0 0 960 640" width="960" height="640" xmlns="http://www.w3.org/2000/svg" xmlns:xlink="http://www.w3.org/1999/xlink" version="1.1"><path d="M0 508L22.8 497.5C45.7 487 91.3 466 137 451.3C182.7 436.7 228.3 428.3 274 434.8C319.7 441.3 365.3 462.7 411.2 468C457 473.3 503 462.7 548.8 455.7C594.7 448.7 640.3 445.3 686 451C731.7 456.7 777.3 471.3 823 471.2C868.7 471 914.3 456 937.2 448.5L960 441L960 0L937.2 0C914.3 0 868.7 0 823 0C777.3 0 731.7 0 686 0C640.3 0 594.7 0 548.8 0C503 0 457 0 411.2 0C365.3 0 319.7 0 274 0C228.3 0 182.7 0 137 0C91.3 0 45.7 0 22.8 0L0 0Z" fill="#171718"></path><path d="M0 389L22.8 398.7C45.7 408.3 91.3 427.7 137 424.7C182.7 421.7 228.3 396.3 274 390.3C319.7 384.3 365.3 397.7 411.2 395C457 392.3 503 373.7 548.8 365.3C594.7 357 640.3 359 686 372.2C731.7 385.3 777.3 409.7 823 414.8C868.7 420 914.3 406 937.2 399L960 392L960 0L937.2 0C914.3 0 868.7 0 823 0C777.3 0 731.7 0 686 0C640.3 0 594.7 0 548.8 0C503 0 457 0 411.2 0C365.3 0 319.7 0 274 0C228.3 0 182.7 0 137 0C91.3 0 45.7 0 22.8 0L0 0Z" fill="#19191f"></path><path d="M0 318L22.8 321.2C45.7 324.3 91.3 330.7 137 335.7C182.7 340.7 228.3 344.3 274 349.3C319.7 354.3 365.3 360.7 411.2 357.7C457 354.7 503 342.3 548.8 343.8C594.7 345.3 640.3 360.7 686 360.5C731.7 360.3 777.3 344.7 823 341C868.7 337.3 914.3 345.7 937.2 349.8L960 354L960 0L937.2 0C914.3 0 868.7 0 823 0C777.3 0 731.7 0 686 0C640.3 0 594.7 0 548.8 0C503 0 457 0 411.2 0C365.3 0 319.7 0 274 0C228.3 0 182.7 0 137 0C91.3 0 45.7 0 22.8 0L0 0Z" fill="#1a1c27"></path><path d="M0 252L22.8 249.7C45.7 247.3 91.3 242.7 137 248.3C182.7 254 228.3 270 274 275.5C319.7 281 365.3 276 411.2 279C457 282 503 293 548.8 295.5C594.7 298 640.3 292 686 291.2C731.7 290.3 777.3 294.7 823 297.3C868.7 300 914.3 301 937.2 301.5L960 302L960 0L937.2 0C914.3 0 868.7 0 823 0C777.3 0 731.7 0 686 0C640.3 0 594.7 0 548.8 0C503 0 457 0 411.2 0C365.3 0 319.7 0 274 0C228.3 0 182.7 0 137 0C91.3 0 45.7 0 22.8 0L0 0Z" fill="#1a1f2f"></path><path d="M0 221L22.8 221.3C45.7 221.7 91.3 222.3 137 222.8C182.7 223.3 228.3 223.7 274 215.5C319.7 207.3 365.3 190.7 411.2 192.7C457 194.7 503 215.3 548.8 216C594.7 216.7 640.3 197.3 686 191.7C731.7 186 777.3 194 823 193.7C868.7 193.3 914.3 184.7 937.2 180.3L960 176L960 0L937.2 0C914.3 0 868.7 0 823 0C777.3 0 731.7 0 686 0C640.3 0 594.7 0 548.8 0C503 0 457 0 411.2 0C365.3 0 319.7 0 274 0C228.3 0 182.7 0 137 0C91.3 0 45.7 0 22.8 0L0 0Z" fill="#182237"></path><path d="M0 170L22.8 163.7C45.7 157.3 91.3 144.7 137 136.2C182.7 127.7 228.3 123.3 274 123.8C319.7 124.3 365.3 129.7 411.2 129.7C457 129.7 503 124.3 548.8 121.2C594.7 118 640.3 117 686 117.5C731.7 118 777.3 120 823 125C868.7 130 914.3 138 937.2 142L960 146L960 0L937.2 0C914.3 0 868.7 0 823 0C777.3 0 731.7 0 686 0C640.3 0 594.7 0 548.8 0C503 0 457 0 411.2 0C365.3 0 319.7 0 274 0C228.3 0 182.7 0 137 0C91.3 0 45.7 0 22.8 0L0 0Z" fill="#14253f"></path><path d="M0 81L22.8 79.3C45.7 77.7 91.3 74.3 137 74.3C182.7 74.3 228.3 77.7 274 77.5C319.7 77.3 365.3 73.7 411.2 77.3C457 81 503 92 548.8 91.7C594.7 91.3 640.3 79.7 686 79.2C731.7 78.7 777.3 89.3 823 89.5C868.7 89.7 914.3 79.3 937.2 74.2L960 69L960 0L937.2 0C914.3 0 868.7 0 823 0C777.3 0 731.7 0 686 0C640.3 0 594.7 0 548.8 0C503 0 457 0 411.2 0C365.3 0 319.7 0 274 0C228.3 0 182.7 0 137 0C91.3 0 45.7 0 22.8 0L0 0Z" fill="#0c2948"></path></svg>