<svg id="visual" viewBox="0 0 900 600" width="900" height="600" xmlns="http://www.w3.org/2000/svg" xmlns:xlink="http://www.w3.org/1999/xlink" version="1.1"><rect x="0" y="0" width="900" height="600" fill="#001220"></rect><path d="M720 600L714.8 585.7C709.7 571.3 699.3 542.7 701 514.2C702.7 485.7 716.3 457.3 722.8 428.8C729.3 400.3 728.7 371.7 722.5 343C716.3 314.3 704.7 285.7 703.2 257C701.7 228.3 710.3 199.7 712.7 171.2C715 142.7 711 114.3 708.3 85.8C705.7 57.3 704.3 28.7 703.7 14.3L703 0L900 0L900 14.3C900 28.7 900 57.3 900 85.8C900 114.3 900 142.7 900 171.2C900 199.7 900 228.3 900 257C900 285.7 900 314.3 900 343C900 371.7 900 400.3 900 428.8C900 457.3 900 485.7 900 514.2C900 542.7 900 571.3 900 585.7L900 600Z" fill="#fa7268"></path><path d="M758 600L754.2 585.7C750.3 571.3 742.7 542.7 743.7 514.2C744.7 485.7 754.3 457.3 759 428.8C763.7 400.3 763.3 371.7 759.3 343C755.3 314.3 747.7 285.7 744.2 257C740.7 228.3 741.3 199.7 745 171.2C748.7 142.7 755.3 114.3 754.5 85.8C753.7 57.3 745.3 28.7 741.2 14.3L737 0L900 0L900 14.3C900 28.7 900 57.3 900 85.8C900 114.3 900 142.7 900 171.2C900 199.7 900 228.3 900 257C900 285.7 900 314.3 900 343C900 371.7 900 400.3 900 428.8C900 457.3 900 485.7 900 514.2C900 542.7 900 571.3 900 585.7L900 600Z" fill="#ef5f67"></path><path d="M770 600L773.7 585.7C777.3 571.3 784.7 542.7 787.7 514.2C790.7 485.7 789.3 457.3 785.8 428.8C782.3 400.3 776.7 371.7 776.7 343C776.7 314.3 782.3 285.7 785.8 257C789.3 228.3 790.7 199.7 792 171.2C793.3 142.7 794.7 114.3 793.5 85.8C792.3 57.3 788.7 28.7 786.8 14.3L785 0L900 0L900 14.3C900 28.7 900 57.3 900 85.8C900 114.3 900 142.7 900 171.2C900 199.7 900 228.3 900 257C900 285.7 900 314.3 900 343C900 371.7 900 400.3 900 428.8C900 457.3 900 485.7 900 514.2C900 542.7 900 571.3 900 585.7L900 600Z" fill="#e34c67"></path><path d="M826 600L825.8 585.7C825.7 571.3 825.3 542.7 822.7 514.2C820 485.7 815 457.3 815.3 428.8C815.7 400.3 821.3 371.7 820.7 343C820 314.3 813 285.7 810.3 257C807.7 228.3 809.3 199.7 809.8 171.2C810.3 142.7 809.7 114.3 810.8 85.8C812 57.3 815 28.7 816.5 14.3L818 0L900 0L900 14.3C900 28.7 900 57.3 900 85.8C900 114.3 900 142.7 900 171.2C900 199.7 900 228.3 900 257C900 285.7 900 314.3 900 343C900 371.7 900 400.3 900 428.8C900 457.3 900 485.7 900 514.2C900 542.7 900 571.3 900 585.7L900 600Z" fill="#d53867"></path><path d="M859 600L857.7 585.7C856.3 571.3 853.7 542.7 851.3 514.2C849 485.7 847 457.3 849.8 428.8C852.7 400.3 860.3 371.7 864.3 343C868.3 314.3 868.7 285.7 868.5 257C868.3 228.3 867.7 199.7 865.8 171.2C864 142.7 861 114.3 858 85.8C855 57.3 852 28.7 850.5 14.3L849 0L900 0L900 14.3C900 28.7 900 57.3 900 85.8C900 114.3 900 142.7 900 171.2C900 199.7 900 228.3 900 257C900 285.7 900 314.3 900 343C900 371.7 900 400.3 900 428.8C900 457.3 900 485.7 900 514.2C900 542.7 900 571.3 900 585.7L900 600Z" fill="#c62368"></path></svg>