<svg xmlns="http://www.w3.org/2000/svg" version="1.1" xmlns:xlink="http://www.w3.org/1999/xlink" xmlns:svgjs="http://svgjs.dev/svgjs" width="2000" height="1892" viewBox="0 0 2000 1892"><g transform="matrix(1,0,0,1,0.5043021412127473,0.7674063986468127)"><svg viewBox="0 0 261 247" data-background-color="#ffffff" preserveAspectRatio="xMidYMid meet" height="1892" width="2000" xmlns="http://www.w3.org/2000/svg" xmlns:xlink="http://www.w3.org/1999/xlink"><g id="tight-bounds" transform="matrix(1,0,0,1,-0.06553160087474907,-0.09997365579206985)"><svg viewBox="0 0 261.131343030303 247.2" height="247.2" width="261.131343030303"><g><svg viewBox="0 0 261.131343030303 247.2" height="247.2" width="261.131343030303"><g><svg viewBox="0 0 261.131343030303 247.2" height="247.2" width="261.131343030303"><g><svg viewBox="0 0 261.131343030303 247.2" height="247.2" width="261.131343030303" id="textblock"><g><svg viewBox="0 0 261.131343030303 247.2" height="247.2" width="261.131343030303"><path d="M260.52 53.02C259.292 27.36 255.794 20.227 255.794 20.227 245.052-6.202 231.646-0.506 219.603 3.292 198.34 3.446 177.164 9.091 155.95 12.119 111.424 12.581 66.517 4.986 22.212 23.717 18.05 29.464-4.318 24.846 0.74 56.304 2.066 69.39 6.903 83.913 6.756 95.922 7.419 98.026 8.339 93.202 8.732 96.23 10.107 104.39 12.354 100.541 14.195 105.365 11.629 118.246 13.471 128.971 15.226 140.21 12.133 143.135 8.167 141.749 6.387 151.449 6.203 158.479 5.209 157.145 4.116 156.837 3.318 156.632 1.71 157.402 1.98 159.608 2.901 167.152-1.052 171.514 1.428 178.904-0.279 186.91 2.606 193.838 2.213 202.511 2.164 204.255 2.434 205.744 2.864 206.154 4.767 208.361 1.992 212.672 2.287 217.342 21.806 249.262 42.983 227.195 62.981 241.872 68.174 231.608 64.27 245.516 66.345 243.36 67.966 240.846 69.144 251.263 70.973 245.362 71.256 243.668 70.826 239.665 71.833 240.435 72.36 240.846 72.827 240.743 72.901 238.382 73.011 234.841 72.041 237.048 71.783 235.201 74.57 225.861 73.883 248.081 76.498 247.158 76.375 244.438 75.614 240.538 77.173 241.051 78.72 237.151 78.769 233.918 80.144 242.693 80.193 244.592 80.438 245.926 80.831 246.85 85.128 237.305 89.4 250.237 93.905 245.926 96.668 241.205 99.319 248.492 102.118 246.696 103.1 245.259 104.095 242.693 105.04 247.004 116.617 247.928 128.954 244.079 139.929 247.158 169.258 241.41 200.599 249.518 231.523 241.923 238.815 238.998 246.39 234.841 253.498 231.506 253.498 231.506 259.256 222.371 259.256 181.316S260.483 145.393 260.667 112.703C260.851 80.013 261.711 78.679 260.483 53.02Z" opacity="1" fill="#ff0000" data-fill-palette-color="tertiary"></path><g transform="matrix(1,0,0,1,55.76831999999999,26.230666666666668)"><svg width="149.59470303030304" viewBox="0.15000000596046448 -33 25.350000381469727 33" height="194.73866666666666" data-palette-color="#ffffff"><path d="M0.15-32.5L0.15-33 7.05-33 7.05-32.5Q6.7-32.45 6.4-32.2 6.1-31.95 6.1-31.45L6.1-31.45Q6.1-31.2 6.25-30.9L6.25-30.9 13.75-17.75 20.95-30.2Q21.15-30.6 21.23-30.8 21.3-31 21.3-31.3L21.3-31.3Q21.2-32.1 20.73-32.3 20.25-32.5 20.15-32.5L20.15-32.5 20.15-33 25.5-33 25.5-32.5Q24.75-32.5 23.98-31.58 23.2-30.65 22.65-29.7L22.65-29.7 14.85-16.2 14.85-3.25Q14.85-2.85 14.98-2.4 15.1-1.95 15.3-1.53 15.5-1.1 15.8-0.8 16.1-0.5 16.5-0.5L16.5-0.5 16.75-0.5 16.75 0 9.6 0 9.6-0.5 9.85-0.5Q10.25-0.5 10.55-0.78 10.85-1.05 11.08-1.48 11.3-1.9 11.4-2.38 11.5-2.85 11.5-3.25L11.5-3.25 11.5-15.75 3.45-29.55Q3.2-29.95 2.85-30.45 2.5-30.95 2.1-31.4 1.7-31.85 1.25-32.18 0.8-32.5 0.4-32.5L0.4-32.5 0.15-32.5Z" opacity="1" transform="matrix(1,0,0,1,0,0)" fill="#ffffff" class="undefined-text-0" data-fill-palette-color="quaternary" id="text-0"></path></svg></g></svg></g></svg></g></svg></g><g></g></svg></g><defs></defs></svg><rect width="261.131343030303" height="247.2" fill="none" stroke="none" visibility="hidden"></rect></g></svg></g></svg>