<svg id="visual" viewBox="0 0 1900 450" width="1900" height="450" xmlns="http://www.w3.org/2000/svg" xmlns:xlink="http://www.w3.org/1999/xlink" version="1.1"><path d="M0 60L45.2 63.7C90.3 67.3 180.7 74.7 271.2 76.2C361.7 77.7 452.3 73.3 542.8 71.2C633.3 69 723.7 69 814.2 71.2C904.7 73.3 995.3 77.7 1085.8 76.2C1176.3 74.7 1266.7 67.3 1357.2 68.8C1447.7 70.3 1538.3 80.7 1628.8 80.7C1719.3 80.7 1809.7 70.3 1854.8 65.2L1900 60L1900 0L1854.8 0C1809.7 0 1719.3 0 1628.8 0C1538.3 0 1447.7 0 1357.2 0C1266.7 0 1176.3 0 1085.8 0C995.3 0 904.7 0 814.2 0C723.7 0 633.3 0 542.8 0C452.3 0 361.7 0 271.2 0C180.7 0 90.3 0 45.2 0L0 0Z" fill="#0c2948"></path><path d="M0 114L45.2 117.7C90.3 121.3 180.7 128.7 271.2 130.2C361.7 131.7 452.3 127.3 542.8 122.2C633.3 117 723.7 111 814.2 113.2C904.7 115.3 995.3 125.7 1085.8 127.2C1176.3 128.7 1266.7 121.3 1357.2 125.2C1447.7 129 1538.3 144 1628.8 145.5C1719.3 147 1809.7 135 1854.8 129L1900 123L1900 58L1854.8 63.2C1809.7 68.3 1719.3 78.7 1628.8 78.7C1538.3 78.7 1447.7 68.3 1357.2 66.8C1266.7 65.3 1176.3 72.7 1085.8 74.2C995.3 75.7 904.7 71.3 814.2 69.2C723.7 67 633.3 67 542.8 69.2C452.3 71.3 361.7 75.7 271.2 74.2C180.7 72.7 90.3 65.3 45.2 61.7L0 58Z" fill="#17243b"></path><path d="M0 271L45.2 274C90.3 277 180.7 283 271.2 278.5C361.7 274 452.3 259 542.8 257.5C633.3 256 723.7 268 814.2 274.8C904.7 281.7 995.3 283.3 1085.8 281.8C1176.3 280.3 1266.7 275.7 1357.2 278.7C1447.7 281.7 1538.3 292.3 1628.8 291.7C1719.3 291 1809.7 279 1854.8 273L1900 267L1900 121L1854.8 127C1809.7 133 1719.3 145 1628.8 143.5C1538.3 142 1447.7 127 1357.2 123.2C1266.7 119.3 1176.3 126.7 1085.8 125.2C995.3 123.7 904.7 113.3 814.2 111.2C723.7 109 633.3 115 542.8 120.2C452.3 125.3 361.7 129.7 271.2 128.2C180.7 126.7 90.3 119.3 45.2 115.7L0 112Z" fill="#1a1f2f"></path><path d="M0 375L45.2 379.5C90.3 384 180.7 393 271.2 394.5C361.7 396 452.3 390 542.8 387C633.3 384 723.7 384 814.2 384.7C904.7 385.3 995.3 386.7 1085.8 386.7C1176.3 386.7 1266.7 385.3 1357.2 387.7C1447.7 390 1538.3 396 1628.8 399.7C1719.3 403.3 1809.7 404.7 1854.8 405.3L1900 406L1900 265L1854.8 271C1809.7 277 1719.3 289 1628.8 289.7C1538.3 290.3 1447.7 279.7 1357.2 276.7C1266.7 273.7 1176.3 278.3 1085.8 279.8C995.3 281.3 904.7 279.7 814.2 272.8C723.7 266 633.3 254 542.8 255.5C452.3 257 361.7 272 271.2 276.5C180.7 281 90.3 275 45.2 272L0 269Z" fill="#1a1b23"></path><path d="M0 451L45.2 451C90.3 451 180.7 451 271.2 451C361.7 451 452.3 451 542.8 451C633.3 451 723.7 451 814.2 451C904.7 451 995.3 451 1085.8 451C1176.3 451 1266.7 451 1357.2 451C1447.7 451 1538.3 451 1628.8 451C1719.3 451 1809.7 451 1854.8 451L1900 451L1900 404L1854.8 403.3C1809.7 402.7 1719.3 401.3 1628.8 397.7C1538.3 394 1447.7 388 1357.2 385.7C1266.7 383.3 1176.3 384.7 1085.8 384.7C995.3 384.7 904.7 383.3 814.2 382.7C723.7 382 633.3 382 542.8 385C452.3 388 361.7 394 271.2 392.5C180.7 391 90.3 382 45.2 377.5L0 373Z" fill="#171718"></path></svg>