<svg id="visual" viewBox="0 0 1900 450" width="1900" height="450" xmlns="http://www.w3.org/2000/svg" xmlns:xlink="http://www.w3.org/1999/xlink" version="1.1"><path d="M0 159L45.2 156C90.3 153 180.7 147 271.2 136.5C361.7 126 452.3 111 542.8 110.2C633.3 109.3 723.7 122.7 814.2 127.2C904.7 131.7 995.3 127.3 1085.8 128.8C1176.3 130.3 1266.7 137.7 1357.2 142.8C1447.7 148 1538.3 151 1628.8 150.3C1719.3 149.7 1809.7 145.3 1854.8 143.2L1900 141L1900 0L1854.8 0C1809.7 0 1719.3 0 1628.8 0C1538.3 0 1447.7 0 1357.2 0C1266.7 0 1176.3 0 1085.8 0C995.3 0 904.7 0 814.2 0C723.7 0 633.3 0 542.8 0C452.3 0 361.7 0 271.2 0C180.7 0 90.3 0 45.2 0L0 0Z" fill="#171718"></path><path d="M0 267L45.2 266.2C90.3 265.3 180.7 263.7 271.2 263.7C361.7 263.7 452.3 265.3 542.8 264.7C633.3 264 723.7 261 814.2 258.7C904.7 256.3 995.3 254.7 1085.8 258.3C1176.3 262 1266.7 271 1357.2 269.5C1447.7 268 1538.3 256 1628.8 258.3C1719.3 260.7 1809.7 277.3 1854.8 285.7L1900 294L1900 139L1854.8 141.2C1809.7 143.3 1719.3 147.7 1628.8 148.3C1538.3 149 1447.7 146 1357.2 140.8C1266.7 135.7 1176.3 128.3 1085.8 126.8C995.3 125.3 904.7 129.7 814.2 125.2C723.7 120.7 633.3 107.3 542.8 108.2C452.3 109 361.7 124 271.2 134.5C180.7 145 90.3 151 45.2 154L0 157Z" fill="#1a1b23"></path><path d="M0 312L45.2 316.5C90.3 321 180.7 330 271.2 330C361.7 330 452.3 321 542.8 320.2C633.3 319.3 723.7 326.7 814.2 326.7C904.7 326.7 995.3 319.3 1085.8 321.7C1176.3 324 1266.7 336 1357.2 337.5C1447.7 339 1538.3 330 1628.8 331.5C1719.3 333 1809.7 345 1854.8 351L1900 357L1900 292L1854.8 283.7C1809.7 275.3 1719.3 258.7 1628.8 256.3C1538.3 254 1447.7 266 1357.2 267.5C1266.7 269 1176.3 260 1085.8 256.3C995.3 252.7 904.7 254.3 814.2 256.7C723.7 259 633.3 262 542.8 262.7C452.3 263.3 361.7 261.7 271.2 261.7C180.7 261.7 90.3 263.3 45.2 264.2L0 265Z" fill="#1a1f2f"></path><path d="M0 348L45.2 354C90.3 360 180.7 372 271.2 372.7C361.7 373.3 452.3 362.7 542.8 364.8C633.3 367 723.7 382 814.2 382C904.7 382 995.3 367 1085.8 364.8C1176.3 362.7 1266.7 373.3 1357.2 376.3C1447.7 379.3 1538.3 374.7 1628.8 376.2C1719.3 377.7 1809.7 385.3 1854.8 389.2L1900 393L1900 355L1854.8 349C1809.7 343 1719.3 331 1628.8 329.5C1538.3 328 1447.7 337 1357.2 335.5C1266.7 334 1176.3 322 1085.8 319.7C995.3 317.3 904.7 324.7 814.2 324.7C723.7 324.7 633.3 317.3 542.8 318.2C452.3 319 361.7 328 271.2 328C180.7 328 90.3 319 45.2 314.5L0 310Z" fill="#17243b"></path><path d="M0 451L45.2 451C90.3 451 180.7 451 271.2 451C361.7 451 452.3 451 542.8 451C633.3 451 723.7 451 814.2 451C904.7 451 995.3 451 1085.8 451C1176.3 451 1266.7 451 1357.2 451C1447.7 451 1538.3 451 1628.8 451C1719.3 451 1809.7 451 1854.8 451L1900 451L1900 391L1854.8 387.2C1809.7 383.3 1719.3 375.7 1628.8 374.2C1538.3 372.7 1447.7 377.3 1357.2 374.3C1266.7 371.3 1176.3 360.7 1085.8 362.8C995.3 365 904.7 380 814.2 380C723.7 380 633.3 365 542.8 362.8C452.3 360.7 361.7 371.3 271.2 370.7C180.7 370 90.3 358 45.2 352L0 346Z" fill="#0c2948"></path></svg>