<svg id="visual" viewBox="0 0 900 600" width="900" height="600" xmlns="http://www.w3.org/2000/svg" xmlns:xlink="http://www.w3.org/1999/xlink" version="1.1"><path d="M0 37L21.5 39C43 41 86 45 128.8 44C171.7 43 214.3 37 257.2 38C300 39 343 47 385.8 50C428.7 53 471.3 51 514.2 49C557 47 600 45 642.8 43C685.7 41 728.3 39 771.2 39C814 39 857 41 878.5 42L900 43L900 0L878.5 0C857 0 814 0 771.2 0C728.3 0 685.7 0 642.8 0C600 0 557 0 514.2 0C471.3 0 428.7 0 385.8 0C343 0 300 0 257.2 0C214.3 0 171.7 0 128.8 0C86 0 43 0 21.5 0L0 0Z" fill="#171718"></path><path d="M0 73L21.5 76C43 79 86 85 128.8 83C171.7 81 214.3 71 257.2 71C300 71 343 81 385.8 85C428.7 89 471.3 87 514.2 87C557 87 600 89 642.8 87C685.7 85 728.3 79 771.2 76C814 73 857 73 878.5 73L900 73L900 41L878.5 40C857 39 814 37 771.2 37C728.3 37 685.7 39 642.8 41C600 43 557 45 514.2 47C471.3 49 428.7 51 385.8 48C343 45 300 37 257.2 36C214.3 35 171.7 41 128.8 42C86 43 43 39 21.5 37L0 35Z" fill="#1a1d28"></path><path d="M0 127L21.5 132C43 137 86 147 128.8 145C171.7 143 214.3 129 257.2 126C300 123 343 131 385.8 138C428.7 145 471.3 151 514.2 151C557 151 600 145 642.8 138C685.7 131 728.3 123 771.2 123C814 123 857 131 878.5 135L900 139L900 71L878.5 71C857 71 814 71 771.2 74C728.3 77 685.7 83 642.8 85C600 87 557 85 514.2 85C471.3 85 428.7 87 385.8 83C343 79 300 69 257.2 69C214.3 69 171.7 79 128.8 81C86 83 43 77 21.5 74L0 71Z" fill="#17233a"></path><path d="M0 235L21.5 249C43 263 86 291 128.8 290C171.7 289 214.3 259 257.2 254C300 249 343 269 385.8 277C428.7 285 471.3 281 514.2 282C557 283 600 289 642.8 285C685.7 281 728.3 267 771.2 261C814 255 857 257 878.5 258L900 259L900 137L878.5 133C857 129 814 121 771.2 121C728.3 121 685.7 129 642.8 136C600 143 557 149 514.2 149C471.3 149 428.7 143 385.8 136C343 129 300 121 257.2 124C214.3 127 171.7 141 128.8 143C86 145 43 135 21.5 130L0 125Z" fill="#0c2948"></path><path d="M0 415L21.5 416C43 417 86 419 128.8 417C171.7 415 214.3 409 257.2 412C300 415 343 427 385.8 429C428.7 431 471.3 423 514.2 417C557 411 600 407 642.8 408C685.7 409 728.3 415 771.2 414C814 413 857 405 878.5 401L900 397L900 257L878.5 256C857 255 814 253 771.2 259C728.3 265 685.7 279 642.8 283C600 287 557 281 514.2 280C471.3 279 428.7 283 385.8 275C343 267 300 247 257.2 252C214.3 257 171.7 287 128.8 288C86 289 43 261 21.5 247L0 233Z" fill="#0c2948"></path><path d="M0 481L21.5 485C43 489 86 497 128.8 496C171.7 495 214.3 485 257.2 487C300 489 343 503 385.8 508C428.7 513 471.3 509 514.2 505C557 501 600 497 642.8 493C685.7 489 728.3 485 771.2 486C814 487 857 493 878.5 496L900 499L900 395L878.5 399C857 403 814 411 771.2 412C728.3 413 685.7 407 642.8 406C600 405 557 409 514.2 415C471.3 421 428.7 429 385.8 427C343 425 300 413 257.2 410C214.3 407 171.7 413 128.8 415C86 417 43 415 21.5 414L0 413Z" fill="#17233a"></path><path d="M0 529L21.5 530C43 531 86 533 128.8 534C171.7 535 214.3 535 257.2 538C300 541 343 547 385.8 548C428.7 549 471.3 545 514.2 540C557 535 600 529 642.8 528C685.7 527 728.3 531 771.2 537C814 543 857 551 878.5 555L900 559L900 497L878.5 494C857 491 814 485 771.2 484C728.3 483 685.7 487 642.8 491C600 495 557 499 514.2 503C471.3 507 428.7 511 385.8 506C343 501 300 487 257.2 485C214.3 483 171.7 493 128.8 494C86 495 43 487 21.5 483L0 479Z" fill="#1a1d28"></path><path d="M0 601L21.5 601C43 601 86 601 128.8 601C171.7 601 214.3 601 257.2 601C300 601 343 601 385.8 601C428.7 601 471.3 601 514.2 601C557 601 600 601 642.8 601C685.7 601 728.3 601 771.2 601C814 601 857 601 878.5 601L900 601L900 557L878.5 553C857 549 814 541 771.2 535C728.3 529 685.7 525 642.8 526C600 527 557 533 514.2 538C471.3 543 428.7 547 385.8 546C343 545 300 539 257.2 536C214.3 533 171.7 533 128.8 532C86 531 43 529 21.5 528L0 527Z" fill="#171718"></path></svg>